# xmcd
#
# Track frame offsets: 
#        150
#        21393
#        38809
#        68079
#        84000
#        97250
#        115397
#        144627
#        160423
#        179482
#        193387
#        205822
#
# Disc length: 2991 seconds
#
# Revision: 0
# Processed by: cddbd v1.5.2PL0 Copyright (c) Steve Scherf et al.
# Submitted via: ExactAudioCopy v0.95b3
#
DISCID=af0bad0c
DTITLE=Õrtorony - Fegyver és szerelem
DYEAR=2003
DGENRE=progresszí bluesrock
TTITLE0=Törökgyerek
TTITLE1=Görbe tükör
TTITLE2=Fegyver és szerelem
TTITLE3=Fáradt nap után
TTITLE4=Bogárka
TTITLE5=Sellõlány
TTITLE6=Szomorú képek
TTITLE7=Ámor asszonya
TTITLE8=Kirakati bábú
TTITLE9=Jómadarak
TTITLE10=Asszimiláció
TTITLE11=Sakk-matt
EXTD=
EXTT0=
EXTT1=
EXTT2=
EXTT3=
EXTT4=
EXTT5=
EXTT6=
EXTT7=
EXTT8=
EXTT9=
EXTT10=
EXTT11=
PLAYORDER=
